<svg xmlns="http://www.w3.org/2000/svg" viewBox="0 0 1097 228"><style>.st0{fill:url(#SVGID_1_)}.st1{fill:url(#SVGID_2_)}.st2{fill:url(#SVGID_3_)}.st3{fill:url(#SVGID_4_)}.st4{fill:url(#SVGID_5_)}.st5{fill:url(#SVGID_6_)}.st6{fill:url(#SVGID_7_)}.st7{fill:url(#SVGID_8_)}.st8{fill:#a0a0a0}.st9{font-family:&amp;apos;LilyUPC&amp;apos;}.st10{font-size:90.8447px}.st11{fill:url(#SVGID_9_)}.st12{fill:url(#SVGID_10_)}.st13{opacity:.21}.st14{fill:#fffffa}</style><g id="mediaone"><linearGradient id="SVGID_1_" gradientUnits="userSpaceOnUse" x1="78.38" y1="183.083" x2="78.38" y2="53.022"><stop offset="0"/><stop offset="1" stop-color="#3d3d3d"/></linearGradient><path class="st0" d="M127.2 161.9V95.3c0-10.7-5.1-16.1-15.3-16.1-6 .6-9.9 3-11.8 7.3-1.9 4.2-2.9 7.7-2.9 10.4v65H68.9V95.3c0-10.7-5.1-16.1-15.3-16.1-6 .7-9.9 3.1-11.8 7.3-1.9 4.2-2.8 7.7-2.9 10.3v65H1.1v-105h37.8v8.6C45.3 58.6 54 55.1 65 54.9c8.8 0 15 1.8 18.5 5.4 3.5 3.6 5.5 6.5 6.1 8.9.1-.1 1.1-1.5 3-4.1 1.9-2.6 5.1-5 9.5-7.2s10-3.3 16.9-3.3c12.2 0 21.3 2.8 27.4 8.4 6.1 5.6 9.2 12.7 9.2 21.3V162h-28.4z"/><linearGradient id="SVGID_2_" gradientUnits="userSpaceOnUse" x1="216.899" y1="183.083" x2="216.899" y2="53.022"><stop offset="0"/><stop offset="1" stop-color="#3d3d3d"/></linearGradient><path class="st1" d="M205.5 119c0 16.6 7 25 21 25 9.4-.3 17.4-1.9 23.9-4.7 6.5-2.8 10.9-5.2 13.3-7l-4.3 25.3c-2.8 1.2-7.9 2.8-15.2 4.7-7.4 1.9-16.1 2.9-26.2 2.9-.8 0-2-.1-3.4-.2-1.5-.1-2.6-.2-3.4-.2-28.7-1.7-43.2-19.5-43.5-53.3 0-20.3 4.2-34.9 12.5-43.7 8.3-8.8 19.9-13.4 34.6-13.8 9.8 0 17.7.7 23.6 2.2 5.9 1.5 11.4 4.7 16.3 9.8 7.1 7.2 10.9 20.4 11.4 39.4 0 3.3-.1 6.1-.3 8.5s-.4 4.1-.5 5h-59.8zm18-42c-12 0-18 7.9-18 23.7H240c0-6.7-1.1-12.2-3.3-16.4s-6.6-6.8-13.2-7.3z"/><linearGradient id="SVGID_3_" gradientUnits="userSpaceOnUse" x1="328.008" y1="183.083" x2="328.008" y2="53.022"><stop offset="0"/><stop offset="1" stop-color="#3d3d3d"/></linearGradient><path class="st2" d="M379.6 14.8v147.1h-37.8v-6c-1.7 1.4-4.7 3.2-9 5.4-4.3 2.1-9.5 3.2-15.6 3.2-7.4 0-14.1-1.5-20.1-4.4-6-2.9-10.9-8.6-14.8-17.1-3.9-8.5-5.9-20.4-5.9-35.7 0-33.6 13.2-51.1 39.6-52.4 7.2 0 12.9.5 17.1 1.4 4.2 1 7.1 1.8 8.7 2.4V14.8h37.8zm-37.8 119.6V83.6c0-.5-1.7-1.5-5.2-3.2-3.4-1.6-7.1-2.6-11-2.9-7.1 0-12.4 2.3-15.9 7-3.4 4.6-5.2 12.3-5.2 23 0 12.7 1.7 21.4 5 26.3 3.3 4.8 8.7 7.2 16.1 7.2 3.7-.1 7-1 10-2.6s5-2.9 6.2-4z"/><linearGradient id="SVGID_4_" gradientUnits="userSpaceOnUse" x1="413.208" y1="183.083" x2="413.208" y2="53.022"><stop offset="0"/><stop offset="1" stop-color="#3d3d3d"/></linearGradient><path class="st3" d="M394.3 161.9V56.8h37.8v105.1h-37.8z"/><linearGradient id="SVGID_5_" gradientUnits="userSpaceOnUse" x1="494.194" y1="183.083" x2="494.194" y2="53.022"><stop offset="0"/><stop offset="1" stop-color="#3d3d3d"/></linearGradient><path class="st4" d="M506.4 162.2v-10.7c-.8 2-3.2 4.4-7.3 7.4s-10.9 4.6-20.3 4.9c-9.1 0-17.1-2.5-24-7.6-6.9-5.1-10.4-12.6-10.5-22.4 0-10.8 3.3-18.6 10-23.4 6.6-4.8 16.7-8.3 30.2-10.3 7.4-1 12.9-2.7 16.7-5.3s5.6-5.3 5.6-8.3c0-2.8-1.6-5.2-4.8-7.3-3.2-2.1-7.3-3.1-12.3-3.1-11.5 0-20.6 1.7-27.2 5.1-6.6 3.4-10.9 6.2-13 8.5l6.3-24.6c0-.4 1.7-1.4 5.1-3 3.4-1.6 8.1-3.2 14.2-4.6 6.1-1.4 13.3-2.2 21.5-2.2 16.8 0 29 3.1 36.5 9.4 7.5 6.2 11.3 13.9 11.3 23.1V162l-38 .2zm-13.9-21.1c5.2-1.3 8.8-3.5 10.8-6.5s3-5.3 3-6.7v-16.1c-.1.2-.6.8-1.4 1.9s-2.4 2.2-4.9 3.5c-2.5 1.2-6.1 2.3-10.8 3.1-5.9.9-10.1 2.5-12.7 4.6-2.5 2.2-3.8 5.6-3.8 10.2.6 4.8 4.4 7.2 11.4 7.2 1.6 0 4.4-.4 8.4-1.2z"/><linearGradient id="SVGID_6_" gradientUnits="userSpaceOnUse" x1="614.207" y1="183.083" x2="614.207" y2="53.022"><stop offset="0"/><stop offset="1" stop-color="#3d3d3d"/></linearGradient><path class="st5" d="M614.4 52.4c13.6 0 24.5 2.1 32.7 6.3 8.2 4.2 14.1 10.5 17.7 18.8 3.6 8.3 5.4 18.8 5.4 31.4 0 19.8-4.4 34.2-13.3 43.4-8.8 9.1-23.2 13.7-43.2 13.7-12.5-.1-22.9-2.1-31-6.1-8.2-4-14.3-10.1-18.4-18.4-4.1-8.3-6.1-19.1-6.1-32.3.1-18.7 5-32.8 14.5-42.4 9.5-9.6 23.4-14.4 41.7-14.4zm-20.2 56.5c.3 8 .9 14.1 1.5 18.3.7 4.3 2.5 8.1 5.4 11.4 2.9 3.3 7.4 5 13.5 5 6 0 10.4-1.6 13.2-4.9s4.6-7.1 5.3-11.6c.7-4.5 1-10.4 1-17.6 0-10.7-1.1-19.1-3.4-25.3-2.2-6.2-7.6-9.3-16.1-9.3-6.1 0-10.6 1.6-13.6 4.9s-4.9 7.2-5.7 11.8c-.7 4.5-1.1 10.3-1.1 17.3z"/><linearGradient id="SVGID_7_" gradientUnits="userSpaceOnUse" x1="733.377" y1="183.083" x2="733.377" y2="53.022"><stop offset="0"/><stop offset="1" stop-color="#3d3d3d"/></linearGradient><path class="st6" d="M783.7 86.1v75.7h-28.2V93.4c0-4.5-1.6-8.3-4.8-11.4-3.2-3.1-8-4.7-14.5-4.7-6.2.9-10.3 3.4-12.3 7.7-2 4.3-3 7.7-3 10.3v66.6h-37.8V56.8h37.8v8.6c.4-.4 1.6-1.5 3.5-3.2 2-1.7 4.8-3.3 8.6-4.7 3.8-1.5 8.5-2.2 14.1-2.2 8.7 0 15.8 1.7 21.3 5 5.5 3.4 9.4 7.4 11.8 12.2 2.3 4.8 3.5 9.3 3.5 13.6z"/><linearGradient id="SVGID_8_" gradientUnits="userSpaceOnUse" x1="845.219" y1="183.083" x2="845.219" y2="53.022"><stop offset="0"/><stop offset="1" stop-color="#3d3d3d"/></linearGradient><path class="st7" d="M833.8 119c0 16.6 7 25 21 25 9.4-.3 17.4-1.9 23.9-4.7 6.5-2.8 10.9-5.2 13.3-7l-4.3 25.3c-2.8 1.2-7.9 2.8-15.2 4.7-7.4 1.9-16.1 2.9-26.2 2.9-.8 0-2-.1-3.4-.2-1.5-.1-2.6-.2-3.4-.2-28.7-1.7-43.2-19.5-43.5-53.3 0-20.3 4.2-34.9 12.5-43.7 8.3-8.8 19.9-13.4 34.6-13.8 9.8 0 17.7.7 23.6 2.2 5.9 1.5 11.4 4.7 16.3 9.8 7.1 7.2 10.9 20.4 11.4 39.4 0 3.3-.1 6.1-.3 8.5-.2 2.4-.4 4.1-.5 5h-59.8zm18.1-42c-12 0-18 7.9-18 23.7h34.5c0-6.7-1.1-12.2-3.3-16.4-2.3-4.4-6.7-6.8-13.2-7.3z"/><text transform="matrix(.9591 0 0 1 0 215.27)" class="st8 st9 st10">business promotion / web-solutions</text></g><g id="Слой_3_копия_2"><linearGradient id="SVGID_9_" gradientUnits="userSpaceOnUse" x1="418.653" y1="51.75" x2="418.653" y2="-3.395"><stop offset="0" stop-color="#008245"/><stop offset="1" stop-color="#00a659"/></linearGradient><path class="st11" d="M427.3 46c-7.8 7.8-20.3 7.8-28.1 0-7.8-7.8-7.8-20.3 0-28.1C406.9 10.1 444 0 444 0s-9 38.2-16.7 46z"/></g><g id="Слой_6"><linearGradient id="SVGID_10_" gradientUnits="userSpaceOnUse" x1="1006" y1="219.75" x2="1006" y2="3.713"><stop offset="0" stop-color="#008245"/><stop offset="1" stop-color="#00a659"/></linearGradient><path class="st12" d="M986.3 2.8L915 61.5l23.5 124.8 79 30.7 62.8-41.5L1097 38z"/></g><path class="st13" d="M1030.8 50l57.8 56.9-8.3 68.6-42.1 27.8-40.9-39.5v-52L970.8 87z" id="Слой_7"/><path class="st14" d="M970.8 63v24l26.5-7v83.8h33.5V50z" id="Shadow_Logo"/></svg>