<?xml version="1.0" encoding="utf-8"?>
<!-- Generator: Adobe Illustrator 19.2.1, SVG Export Plug-In . SVG Version: 6.00 Build 0)  -->
<svg version="1.1" xmlns="http://www.w3.org/2000/svg" xmlns:xlink="http://www.w3.org/1999/xlink" x="0px" y="0px"
	 viewBox="0 0 1097 228" style="enable-background:new 0 0 1097 228;" xml:space="preserve">
<style type="text/css">
	.st0{fill:url(#SVGID_1_);}
	.st1{fill:url(#SVGID_2_);}
	.st2{fill:url(#SVGID_3_);}
	.st3{fill:url(#SVGID_4_);}
	.st4{fill:url(#SVGID_5_);}
	.st5{fill:url(#SVGID_6_);}
	.st6{fill:url(#SVGID_7_);}
	.st7{fill:url(#SVGID_8_);}
	.st8{fill:#A0A0A0;}
	.st9{font-family:'LilyUPC';}
	.st10{font-size:90.8447px;}
	.st11{fill:url(#SVGID_9_);}
	.st12{fill:url(#SVGID_10_);}
	.st13{opacity:0.21;}
	.st14{fill:#FFFFFA;}
</style>
<g id="Слой_1">
</g>
<g id="mediaone">
	<g>
		<linearGradient id="SVGID_1_" gradientUnits="userSpaceOnUse" x1="78.3801" y1="183.0833" x2="78.3801" y2="53.0218">
			<stop  offset="0" style="stop-color:#000000"/>
			<stop  offset="1" style="stop-color:#3D3D3D"/>
		</linearGradient>
		<path class="st0" d="M127.2,161.9V95.3c0-10.7-5.1-16.1-15.3-16.1c-6,0.6-9.9,3-11.8,7.3c-1.9,4.2-2.9,7.7-2.9,10.4v65H68.9V95.3
			c0-10.7-5.1-16.1-15.3-16.1c-6,0.7-9.9,3.1-11.8,7.3c-1.9,4.2-2.8,7.7-2.9,10.3v65H1.1V56.8h37.8v8.6c6.4-6.8,15.1-10.3,26.1-10.5
			c8.8,0,15,1.8,18.5,5.4c3.5,3.6,5.5,6.5,6.1,8.9c0.1-0.1,1.1-1.5,3-4.1c1.9-2.6,5.1-5,9.5-7.2c4.4-2.2,10-3.3,16.9-3.3
			c12.2,0,21.3,2.8,27.4,8.4c6.1,5.6,9.2,12.7,9.2,21.3v77.7H127.2z"/>
		<linearGradient id="SVGID_2_" gradientUnits="userSpaceOnUse" x1="216.8992" y1="183.0833" x2="216.8992" y2="53.0218">
			<stop  offset="0" style="stop-color:#000000"/>
			<stop  offset="1" style="stop-color:#3D3D3D"/>
		</linearGradient>
		<path class="st1" d="M205.5,119c0,16.6,7,25,21,25c9.4-0.3,17.4-1.9,23.9-4.7c6.5-2.8,10.9-5.2,13.3-7l-4.3,25.3
			c-2.8,1.2-7.9,2.8-15.2,4.7c-7.4,1.9-16.1,2.9-26.2,2.9c-0.8,0-2-0.1-3.4-0.2c-1.5-0.1-2.6-0.2-3.4-0.2
			c-28.7-1.7-43.2-19.5-43.5-53.3c0-20.3,4.2-34.9,12.5-43.7c8.3-8.8,19.9-13.4,34.6-13.8c9.8,0,17.7,0.7,23.6,2.2
			c5.9,1.5,11.4,4.7,16.3,9.8c7.1,7.2,10.9,20.4,11.4,39.4c0,3.3-0.1,6.1-0.3,8.5s-0.4,4.1-0.5,5H205.5z M223.5,77
			c-12,0-18,7.9-18,23.7H240c0-6.7-1.1-12.2-3.3-16.4S230.1,77.5,223.5,77z"/>
		<linearGradient id="SVGID_3_" gradientUnits="userSpaceOnUse" x1="328.0076" y1="183.0833" x2="328.0076" y2="53.0218">
			<stop  offset="0" style="stop-color:#000000"/>
			<stop  offset="1" style="stop-color:#3D3D3D"/>
		</linearGradient>
		<path class="st2" d="M379.6,14.8v147.1h-37.8v-6c-1.7,1.4-4.7,3.2-9,5.4c-4.3,2.1-9.5,3.2-15.6,3.2c-7.4,0-14.1-1.5-20.1-4.4
			c-6-2.9-10.9-8.6-14.8-17.1c-3.9-8.5-5.9-20.4-5.9-35.7c0-33.6,13.2-51.1,39.6-52.4c7.2,0,12.9,0.5,17.1,1.4
			c4.2,1,7.1,1.8,8.7,2.4V14.8H379.6z M341.8,134.4V83.6c0-0.5-1.7-1.5-5.2-3.2c-3.4-1.6-7.1-2.6-11-2.9c-7.1,0-12.4,2.3-15.9,7
			c-3.4,4.6-5.2,12.3-5.2,23c0,12.7,1.7,21.4,5,26.3c3.3,4.8,8.7,7.2,16.1,7.2c3.7-0.1,7-1,10-2.6
			C338.6,136.8,340.6,135.5,341.8,134.4z"/>
		<linearGradient id="SVGID_4_" gradientUnits="userSpaceOnUse" x1="413.2078" y1="183.0833" x2="413.2078" y2="53.0218">
			<stop  offset="0" style="stop-color:#000000"/>
			<stop  offset="1" style="stop-color:#3D3D3D"/>
		</linearGradient>
		<path class="st3" d="M394.3,161.9V56.8h37.8v105.1H394.3z"/>
		<linearGradient id="SVGID_5_" gradientUnits="userSpaceOnUse" x1="494.1938" y1="183.0833" x2="494.1938" y2="53.0218">
			<stop  offset="0" style="stop-color:#000000"/>
			<stop  offset="1" style="stop-color:#3D3D3D"/>
		</linearGradient>
		<path class="st4" d="M506.4,162.2v-10.7c-0.8,2-3.2,4.4-7.3,7.4c-4.1,3-10.9,4.6-20.3,4.9c-9.1,0-17.1-2.5-24-7.6
			c-6.9-5.1-10.4-12.6-10.5-22.4c0-10.8,3.3-18.6,10-23.4c6.6-4.8,16.7-8.3,30.2-10.3c7.4-1,12.9-2.7,16.7-5.3s5.6-5.3,5.6-8.3
			c0-2.8-1.6-5.2-4.8-7.3c-3.2-2.1-7.3-3.1-12.3-3.1c-11.5,0-20.6,1.7-27.2,5.1c-6.6,3.4-10.9,6.2-13,8.5l6.3-24.6
			c0-0.4,1.7-1.4,5.1-3c3.4-1.6,8.1-3.2,14.2-4.6c6.1-1.4,13.3-2.2,21.5-2.2c16.8,0,29,3.1,36.5,9.4c7.5,6.2,11.3,13.9,11.3,23.1
			v74.2L506.4,162.2z M492.5,141.1c5.2-1.3,8.8-3.5,10.8-6.5c2-3,3-5.3,3-6.7v-16.1c-0.1,0.2-0.6,0.8-1.4,1.9s-2.4,2.2-4.9,3.5
			c-2.5,1.2-6.1,2.3-10.8,3.1c-5.9,0.9-10.1,2.5-12.7,4.6c-2.5,2.2-3.8,5.6-3.8,10.2c0.6,4.8,4.4,7.2,11.4,7.2
			C485.7,142.3,488.5,141.9,492.5,141.1z"/>
		<linearGradient id="SVGID_6_" gradientUnits="userSpaceOnUse" x1="614.207" y1="183.0833" x2="614.207" y2="53.0218">
			<stop  offset="0" style="stop-color:#000000"/>
			<stop  offset="1" style="stop-color:#3D3D3D"/>
		</linearGradient>
		<path class="st5" d="M614.4,52.4c13.6,0,24.5,2.1,32.7,6.3c8.2,4.2,14.1,10.5,17.7,18.8c3.6,8.3,5.4,18.8,5.4,31.4
			c0,19.8-4.4,34.2-13.3,43.4c-8.8,9.1-23.2,13.7-43.2,13.7c-12.5-0.1-22.9-2.1-31-6.1c-8.2-4-14.3-10.1-18.4-18.4
			c-4.1-8.3-6.1-19.1-6.1-32.3c0.1-18.7,5-32.8,14.5-42.4C582.2,57.2,596.1,52.4,614.4,52.4z M594.2,108.9c0.3,8,0.9,14.1,1.5,18.3
			c0.7,4.3,2.5,8.1,5.4,11.4c2.9,3.3,7.4,5,13.5,5c6,0,10.4-1.6,13.2-4.9s4.6-7.1,5.3-11.6c0.7-4.5,1-10.4,1-17.6
			c0-10.7-1.1-19.1-3.4-25.3c-2.2-6.2-7.6-9.3-16.1-9.3c-6.1,0-10.6,1.6-13.6,4.9s-4.9,7.2-5.7,11.8
			C594.6,96.1,594.2,101.9,594.2,108.9z"/>
		<linearGradient id="SVGID_7_" gradientUnits="userSpaceOnUse" x1="733.377" y1="183.0833" x2="733.377" y2="53.0218">
			<stop  offset="0" style="stop-color:#000000"/>
			<stop  offset="1" style="stop-color:#3D3D3D"/>
		</linearGradient>
		<path class="st6" d="M783.7,86.1v75.7h-28.2V93.4c0-4.5-1.6-8.3-4.8-11.4c-3.2-3.1-8-4.7-14.5-4.7c-6.2,0.9-10.3,3.4-12.3,7.7
			c-2,4.3-3,7.7-3,10.3v66.6h-37.8V56.8h37.8v8.6c0.4-0.4,1.6-1.5,3.5-3.2c2-1.7,4.8-3.3,8.6-4.7c3.8-1.5,8.5-2.2,14.1-2.2
			c8.7,0,15.8,1.7,21.3,5c5.5,3.4,9.4,7.4,11.8,12.2C782.5,77.3,783.7,81.8,783.7,86.1z"/>
		<linearGradient id="SVGID_8_" gradientUnits="userSpaceOnUse" x1="845.2188" y1="183.0833" x2="845.2188" y2="53.0218">
			<stop  offset="0" style="stop-color:#000000"/>
			<stop  offset="1" style="stop-color:#3D3D3D"/>
		</linearGradient>
		<path class="st7" d="M833.8,119c0,16.6,7,25,21,25c9.4-0.3,17.4-1.9,23.9-4.7c6.5-2.8,10.9-5.2,13.3-7l-4.3,25.3
			c-2.8,1.2-7.9,2.8-15.2,4.7c-7.4,1.9-16.1,2.9-26.2,2.9c-0.8,0-2-0.1-3.4-0.2c-1.5-0.1-2.6-0.2-3.4-0.2
			c-28.7-1.7-43.2-19.5-43.5-53.3c0-20.3,4.2-34.9,12.5-43.7c8.3-8.8,19.9-13.4,34.6-13.8c9.8,0,17.7,0.7,23.6,2.2
			c5.9,1.5,11.4,4.7,16.3,9.8c7.1,7.2,10.9,20.4,11.4,39.4c0,3.3-0.1,6.1-0.3,8.5c-0.2,2.4-0.4,4.1-0.5,5H833.8z M851.9,77
			c-12,0-18,7.9-18,23.7h34.5c0-6.7-1.1-12.2-3.3-16.4C862.8,79.9,858.4,77.5,851.9,77z"/>
	</g>
	<text transform="matrix(0.9591 0 0 1 -4.882813e-004 215.2695)" class="st8 st9 st10">business promotion / web-solutions</text>
</g>
<g id="Слой_3_копия_2">
	<linearGradient id="SVGID_9_" gradientUnits="userSpaceOnUse" x1="418.6526" y1="51.75" x2="418.6526" y2="-3.3953">
		<stop  offset="0" style="stop-color:#008245"/>
		<stop  offset="1" style="stop-color:#00A659"/>
	</linearGradient>
	<path class="st11" d="M427.3,46c-7.8,7.8-20.3,7.8-28.1,0c-7.8-7.8-7.8-20.3,0-28.1C406.9,10.1,444,0,444,0S435,38.2,427.3,46z"/>
</g>
<g id="Слой_6">
	<linearGradient id="SVGID_10_" gradientUnits="userSpaceOnUse" x1="1006.0005" y1="219.75" x2="1006.0005" y2="3.713">
		<stop  offset="0" style="stop-color:#008245"/>
		<stop  offset="1" style="stop-color:#00A659"/>
	</linearGradient>
	<polygon class="st12" points="986.3,2.8 915,61.5 938.5,186.3 1017.5,217 1080.3,175.5 1097,38 	"/>
</g>
<g id="Слой_7">
	<polygon class="st13" points="1030.8,50 1088.6,106.9 1080.3,175.5 1038.2,203.3 997.3,163.8 997.3,111.8 970.8,87 	"/>
</g>
<g id="Shadow_Logo">
	<polygon class="st14" points="970.8,63 970.8,87 997.3,80 997.3,163.8 1030.8,163.8 1030.8,50 	"/>
</g>
</svg>
